<svg width="25" height="42" viewBox="0 0 25 42" fill="none" xmlns="http://www.w3.org/2000/svg">
    <line x1="12.5" y1="18" x2="12.5" y2="42" stroke="#18A0FB" stroke-width="3"/>
    <path d="M-1.14712e-06 0.857173C-1.13726e-06 0.629837 0.109746 0.411811 0.305098 0.25106C0.500451 0.0903083 0.765406 -1.0676e-06 1.04168 -1.05543e-06L23.9586 -4.58776e-08C24.1415 3.71834e-05 24.3212 0.0397151 24.4796 0.115043C24.638 0.19037 24.7695 0.298691 24.8608 0.429108C24.9522 0.559525 25.0002 0.707438 25 0.85797C24.9998 1.0085 24.9515 1.15634 24.8598 1.28662L13.4014 17.5729C13.3098 17.7028 13.1784 17.8106 13.0203 17.8856C12.8621 17.9606 12.6828 18 12.5003 18C12.3178 18 12.1386 17.9606 11.9804 17.8856C11.8223 17.8106 11.6909 17.7028 11.5993 17.5729L0.140834 1.28662C0.0486699 1.1562 8.02775e-05 1.00804 -1.14712e-06 0.857173V0.857173Z" fill="#18A0FB"/>
</svg>
