<svg width="21" height="30" viewBox="0 0 21 30" fill="none" xmlns="http://www.w3.org/2000/svg">
    <line x1="10.5" y1="14" x2="10.5" y2="30" stroke="#18A0FB" stroke-width="3"/>
    <path d="M-5.05572e-07 0.714311C-4.97355e-07 0.524864 0.092187 0.343176 0.256283 0.209216C0.420379 0.0752569 0.642942 -8.96787e-07 0.875009 -8.86564e-07L20.1252 -3.85371e-08C20.2789 3.09859e-05 20.4298 0.0330959 20.5629 0.0958689C20.6959 0.158642 20.8063 0.248909 20.8831 0.35759C20.9598 0.466271 21.0001 0.589532 21 0.714975C20.9999 0.840418 20.9593 0.963618 20.8823 1.07218L11.2572 14.6441C11.1802 14.7524 11.0698 14.8422 10.937 14.9047C10.8042 14.9671 10.6536 15 10.5003 15C10.347 15 10.1964 14.9671 10.0636 14.9047C9.93072 14.8422 9.82032 14.7524 9.7434 14.6441L0.118301 1.07218C0.0408832 0.9635 6.78912e-05 0.840032 -5.05572e-07 0.714311V0.714311Z" fill="#18A0FB"/>
</svg>
